<?xml version="1.0" ?><!DOCTYPE svg  PUBLIC '-//W3C//DTD SVG 1.1//EN'  'http://www.w3.org/Graphics/SVG/1.1/DTD/svg11.dtd'><svg enable-background="new 0 0 141.732 141.732" height="141.732px" id="Livello_1" version="1.1" viewBox="0 0 141.732 141.732" width="141.732px" xml:space="preserve" xmlns="http://www.w3.org/2000/svg" xmlns:xlink="http://www.w3.org/1999/xlink"><g id="Livello_34"><path d="M108.527,66.186l-42.209-42.21c-2.498-2.494-6.547-2.494-9.046,0c-2.495,2.498-2.495,6.547,0,9.045L88.996,64.74H6.365   c-3.532,0-6.398,2.869-6.398,6.398c0,3.53,2.867,6.396,6.398,6.396h82.629L57.7,108.829c-2.495,2.493-2.495,6.548,0,9.041   c2.499,2.498,6.55,2.498,9.046,0l42.208-42.21c0.149-0.147,0.291-0.305,0.425-0.468c0.064-0.071,0.11-0.147,0.169-0.229   c0.067-0.091,0.145-0.181,0.203-0.277c0.06-0.093,0.111-0.185,0.169-0.275c0.051-0.087,0.104-0.169,0.151-0.26   c0.05-0.095,0.094-0.192,0.139-0.289c0.045-0.093,0.091-0.184,0.13-0.277c0.039-0.095,0.068-0.191,0.104-0.283   c0.038-0.106,0.076-0.201,0.107-0.304c0.025-0.102,0.049-0.194,0.073-0.291c0.025-0.106,0.058-0.21,0.075-0.318   c0.021-0.108,0.035-0.225,0.054-0.339c0.015-0.094,0.03-0.186,0.041-0.276c0.041-0.42,0.041-0.842,0-1.261   c-0.011-0.096-0.026-0.188-0.041-0.278c-0.019-0.113-0.029-0.229-0.054-0.337c-0.021-0.108-0.05-0.212-0.075-0.319   c-0.024-0.097-0.048-0.191-0.073-0.291c-0.031-0.102-0.069-0.199-0.107-0.304c-0.029-0.095-0.062-0.191-0.104-0.286   c-0.04-0.095-0.085-0.186-0.13-0.277c-0.045-0.098-0.089-0.196-0.139-0.291c-0.051-0.089-0.105-0.172-0.151-0.258   c-0.058-0.094-0.109-0.187-0.169-0.278c-0.062-0.095-0.136-0.184-0.203-0.275c-0.059-0.077-0.104-0.154-0.169-0.228   c-0.197-0.243-0.423-0.466-0.657-0.678C108.659,66.333,108.595,66.257,108.527,66.186 M141.732,141.846V-0.001H65.353v10.912   h65.469v120.024H65.353v10.907h76.379V141.846z"/></g><g id="Livello_1_1_"/></svg>